<svg width="1500" height="1500" viewBox="0 0 1500 1500" fill="none" xmlns="http://www.w3.org/2000/svg">
<circle cx="750" cy="750" r="750" fill="url(#paint0_linear_437_211)"/>
<circle cx="750" cy="750" r="715" stroke="white" stroke-opacity="0.43" stroke-width="70" stroke-dasharray="200 200"/>
<mask id="path-3-outside-1_437_211" maskUnits="userSpaceOnUse" x="419" y="387" width="661" height="730" fill="black">
<rect fill="white" x="419" y="387" width="661" height="730"/>
<path d="M599.464 388.727L746.126 636.597H751.808L899.18 388.727H1072.83L850.885 752.364L1077.8 1116H900.956L751.808 867.776H746.126L596.979 1116H420.842L648.47 752.364L425.104 388.727H599.464Z"/>
</mask>
<path d="M599.464 388.727L746.126 636.597H751.808L899.18 388.727H1072.83L850.885 752.364L1077.8 1116H900.956L751.808 867.776H746.126L596.979 1116H420.842L648.47 752.364L425.104 388.727H599.464Z" fill="white"/>
<path d="M599.464 388.727L600.325 388.218L600.035 387.727H599.464V388.727ZM746.126 636.597L745.266 637.106L745.556 637.597H746.126V636.597ZM751.808 636.597V637.597H752.377L752.668 637.108L751.808 636.597ZM899.18 388.727V387.727H898.612L898.321 388.216L899.18 388.727ZM1072.83 388.727L1073.68 389.248L1074.61 387.727H1072.83V388.727ZM850.885 752.364L850.031 751.843L849.71 752.369L850.037 752.893L850.885 752.364ZM1077.8 1116V1117H1079.61L1078.65 1115.47L1077.8 1116ZM900.956 1116L900.099 1116.52L900.39 1117H900.956V1116ZM751.808 867.776L752.665 867.26L752.374 866.776H751.808V867.776ZM746.126 867.776V866.776H745.561L745.269 867.26L746.126 867.776ZM596.979 1116V1117H597.544L597.836 1116.52L596.979 1116ZM420.842 1116L419.995 1115.47L419.037 1117H420.842V1116ZM648.47 752.364L649.318 752.894L649.647 752.369L649.322 751.84L648.47 752.364ZM425.104 388.727V387.727H423.316L424.252 389.251L425.104 388.727ZM598.604 389.236L745.266 637.106L746.987 636.087L600.325 388.218L598.604 389.236ZM746.126 637.597H751.808V635.597H746.126V637.597ZM752.668 637.108L900.04 389.238L898.321 388.216L750.949 636.086L752.668 637.108ZM899.18 389.727H1072.83V387.727H899.18V389.727ZM1071.98 388.206L850.031 751.843L851.739 752.885L1073.68 389.248L1071.98 388.206ZM850.037 752.893L1076.95 1116.53L1078.65 1115.47L851.733 751.834L850.037 752.893ZM1077.8 1115H900.956V1117H1077.8V1115ZM901.813 1115.48L752.665 867.26L750.951 868.291L900.099 1116.52L901.813 1115.48ZM751.808 866.776H746.126V868.776H751.808V866.776ZM745.269 867.26L596.122 1115.48L597.836 1116.52L746.984 868.291L745.269 867.26ZM596.979 1115H420.842V1117H596.979V1115ZM421.69 1116.53L649.318 752.894L647.623 751.833L419.995 1115.47L421.69 1116.53ZM649.322 751.84L425.956 388.204L424.252 389.251L647.618 752.887L649.322 751.84ZM425.104 389.727H599.464V387.727H425.104V389.727Z" fill="white" fill-opacity="0.43" mask="url(#path-3-outside-1_437_211)"/>
<defs>
<linearGradient id="paint0_linear_437_211" x1="315" y1="140" x2="1262.5" y2="1268" gradientUnits="userSpaceOnUse">
<stop stop-color="#29ABE2"/>
<stop offset="0.575" stop-color="#ED1E79"/>
<stop offset="1" stop-color="#FBB03B"/>
</linearGradient>
</defs>
</svg>
