<svg width="623" height="592" viewBox="0 0 623 592" fill="none" xmlns="http://www.w3.org/2000/svg">
<path fill-rule="evenodd" clip-rule="evenodd" d="M76.5468 0.937766C44.8148 6.26377 17.6448 28.6178 5.87782 59.0818C-0.398179 75.3308 -0.181181 68.1988 0.118819 247.95L0.391821 411.39L2.58482 419.088C11.8718 451.681 34.3308 474.656 66.6048 484.581C75.2158 487.229 76.0028 487.289 107.137 487.66L138.887 488.039V527.35C138.887 573.835 138.908 573.966 147.945 583.068C152.451 587.606 154.75 589.085 159.402 590.437C166.515 592.505 173.002 591.918 180.214 588.552C183.059 587.225 200.012 575.203 217.887 561.838C235.762 548.472 265.363 526.366 283.667 512.714L316.947 487.89H428.807C551.832 487.89 548.811 488.026 565.096 481.748C580.05 475.983 596.767 462.816 606.569 449.082C612.09 441.346 617.069 430.749 620.1 420.285L622.387 412.39V243.89V75.3898L620.1 67.4948C609.848 32.0968 581.475 6.65476 545.887 0.947764C538.049 -0.309236 84.0338 -0.319234 76.5468 0.937766ZM86.3868 43.5878C81.4708 44.2398 72.7218 46.9328 68.4618 49.1068C62.8608 51.9638 53.3588 61.3128 49.9498 67.3208C43.4888 78.7078 43.8868 67.1058 43.8868 243.982C43.8868 398.604 43.9588 404.942 45.7708 410.765C50.4278 425.727 61.9168 437.18 77.7678 442.662C81.6948 444.02 89.8438 444.315 132.137 444.634L181.887 445.009V488.949C181.887 513.117 182.237 532.89 182.664 532.89C183.092 532.89 184.555 532.118 185.914 531.174C188.379 529.464 275.199 464.754 292.489 451.741L301.591 444.89L416.989 444.882C491.232 444.878 534.705 444.508 538.887 443.845C546.686 442.61 557.835 437.489 563.532 432.526C568.718 428.007 574.329 419.633 577.191 412.139L579.387 406.39V244.39V82.3898L576.998 75.8898C570.51 58.2428 556.348 46.5228 538.387 43.9368C531.73 42.9788 93.5308 42.6398 86.3868 43.5878ZM181.126 165.217C171.66 168.673 166.407 177.006 167.075 187.507C167.59 195.591 171.216 201.154 178.369 204.835L183.334 207.39H311.86H440.387L444.54 205.169C450.291 202.094 454.604 196.513 455.979 190.368C458.093 180.921 453.364 170.956 444.448 166.068C441.633 164.525 431.07 164.375 312.887 164.208C215.619 164.071 183.594 164.316 181.126 165.217ZM182.708 281.274C172.832 283.957 166.868 291.765 166.909 301.956C166.948 311.684 173.142 320.478 181.61 322.83C184.156 323.537 226.785 323.874 312.387 323.862C433.233 323.847 439.581 323.758 443.387 322.019C460.212 314.334 460.885 291.351 444.54 282.611L440.387 280.39L313.887 280.196C214.181 280.043 186.396 280.271 182.708 281.274Z" fill="black"/>
</svg>
